# Blender v2.93.3 OBJ File: 'blue.blend'
# www.blender.org
mtllib blue.mtl
o Clue1_Text.003
v -1.191298 0.059626 -1.169977
v -1.198991 0.065453 -1.170279
v -1.198968 0.068961 -1.103173
v -1.191275 0.063134 -1.102871
vt 0.666667 0.000000
vt 0.000000 0.000000
vt 0.333333 0.000000
vt 1.000000 0.000000
vn 0.6044 0.7956 -0.0418
usemtl ClueNum
s off
f 3/1/1 1/2/1 2/3/1
f 3/1/1 4/4/1 1/2/1
o Plate1_Plane.008
v -1.280720 0.128322 -1.087072
v -1.107454 -0.002938 -1.080268
v -1.280757 0.122672 -1.195160
v -1.107490 -0.008589 -1.188357
vt 0.000000 0.000000
vt 1.000000 0.000000
vt 1.000000 1.000000
vt 0.000000 1.000000
vn 0.6044 0.7956 -0.0418
usemtl BlueClue
s off
f 5/5/2 6/6/2 8/7/2 7/8/2
