# Blender v2.93.3 OBJ File: 'green.blend'
# www.blender.org
mtllib greenC.mtl
o Clue3_Text.001
v -0.015748 -0.010274 -0.020669
v -0.014620 -0.010274 -0.021161
v -0.013547 -0.010274 -0.021601
v -0.012522 -0.010274 -0.021991
v -0.011538 -0.010274 -0.022333
v -0.010588 -0.010274 -0.022628
v -0.009665 -0.010274 -0.022878
v -0.008763 -0.010274 -0.023086
v -0.007875 -0.010274 -0.023252
v -0.006993 -0.010274 -0.023378
v -0.006111 -0.010274 -0.023466
v -0.005223 -0.010274 -0.023518
v -0.004320 -0.010274 -0.023535
v -0.002601 -0.010274 -0.023457
v -0.000996 -0.010274 -0.023224
v 0.000490 -0.010274 -0.022842
v 0.001848 -0.010274 -0.022314
v 0.003072 -0.010274 -0.021646
v 0.004155 -0.010274 -0.020844
v 0.005091 -0.010274 -0.019913
v 0.005872 -0.010274 -0.018857
v 0.006491 -0.010274 -0.017683
v 0.006943 -0.010274 -0.016394
v 0.007219 -0.010274 -0.014996
v 0.007314 -0.010274 -0.013494
v 0.007222 -0.010274 -0.012019
v 0.006946 -0.010274 -0.010650
v 0.006485 -0.010274 -0.009392
v 0.005840 -0.010274 -0.008249
v 0.005009 -0.010274 -0.007225
v 0.003994 -0.010274 -0.006324
v 0.002794 -0.010274 -0.005549
v 0.001408 -0.010274 -0.004907
v -0.000162 -0.010274 -0.004399
v -0.001916 -0.010274 -0.004031
v -0.003856 -0.010274 -0.003806
v -0.005980 -0.010274 -0.003730
v -0.005974 -0.010274 0.005138
v -0.003683 -0.010274 0.005128
v -0.001589 -0.010274 0.005337
v 0.000307 -0.010274 0.005752
v 0.002005 -0.010274 0.006358
v 0.003504 -0.010274 0.007141
v 0.004805 -0.010274 0.008086
v 0.005907 -0.010274 0.009179
v 0.006810 -0.010274 0.010405
v 0.007513 -0.010274 0.011751
v 0.008016 -0.010274 0.013201
v 0.008318 -0.010274 0.014742
v 0.008420 -0.010274 0.016360
v 0.008334 -0.010274 0.017937
v 0.008078 -0.010274 0.019413
v 0.007658 -0.010274 0.020782
v 0.007082 -0.010274 0.022035
v 0.006354 -0.010274 0.023167
v 0.005483 -0.010274 0.024170
v 0.004473 -0.010274 0.025038
v 0.003333 -0.010274 0.025764
v 0.002068 -0.010274 0.026341
v 0.000685 -0.010274 0.026761
v -0.000810 -0.010274 0.027019
v -0.002410 -0.010274 0.027108
v -0.003642 -0.010274 0.027074
v -0.004874 -0.010274 0.026969
v -0.006108 -0.010274 0.026795
v -0.007344 -0.010274 0.026549
v -0.008583 -0.010274 0.026233
v -0.009825 -0.010274 0.025845
v -0.011072 -0.010274 0.025385
v -0.012323 -0.010274 0.024853
v -0.013580 -0.010274 0.024248
v -0.014843 -0.010274 0.023570
v -0.016113 -0.010274 0.022820
v -0.017390 -0.010274 0.021995
v -0.017382 -0.010274 0.032440
v -0.016175 -0.010274 0.033032
v -0.014968 -0.010274 0.033578
v -0.013763 -0.010274 0.034076
v -0.012560 -0.010274 0.034527
v -0.011360 -0.010274 0.034928
v -0.010163 -0.010274 0.035279
v -0.008970 -0.010274 0.035579
v -0.007782 -0.010274 0.035826
v -0.006600 -0.010274 0.036020
v -0.005424 -0.010274 0.036160
v -0.004254 -0.010274 0.036244
v -0.003093 -0.010274 0.036271
v -0.000068 -0.010274 0.036097
v 0.002787 -0.010274 0.035591
v 0.005454 -0.010274 0.034768
v 0.007915 -0.010274 0.033646
v 0.010153 -0.010274 0.032241
v 0.012151 -0.010274 0.030570
v 0.013889 -0.010274 0.028648
v 0.015351 -0.010274 0.026492
v 0.016518 -0.010274 0.024119
v 0.017373 -0.010274 0.021545
v 0.017898 -0.010274 0.018786
v 0.018076 -0.010274 0.015860
v 0.018012 -0.010274 0.014136
v 0.017823 -0.010274 0.012426
v 0.017505 -0.010274 0.010747
v 0.017056 -0.010274 0.009117
v 0.016473 -0.010274 0.007552
v 0.015753 -0.010274 0.006070
v 0.014893 -0.010274 0.004689
v 0.013892 -0.010274 0.003426
v 0.012745 -0.010274 0.002299
v 0.011450 -0.010274 0.001325
v 0.010006 -0.010274 0.000521
v 0.008408 -0.010274 -0.000095
v 0.009859 -0.010274 -0.000953
v 0.011162 -0.010274 -0.001857
v 0.012322 -0.010274 -0.002814
v 0.013342 -0.010274 -0.003832
v 0.014227 -0.010274 -0.004920
v 0.014980 -0.010274 -0.006086
v 0.015606 -0.010274 -0.007338
v 0.016108 -0.010274 -0.008684
v 0.016492 -0.010274 -0.010133
v 0.016760 -0.010274 -0.011692
v 0.016918 -0.010274 -0.013371
v 0.016968 -0.010274 -0.015176
v 0.016806 -0.010274 -0.017757
v 0.016332 -0.010274 -0.020170
v 0.015559 -0.010274 -0.022405
v 0.014498 -0.010274 -0.024451
v 0.013162 -0.010274 -0.026297
v 0.011564 -0.010274 -0.027932
v 0.009716 -0.010274 -0.029345
v 0.007629 -0.010274 -0.030525
v 0.005317 -0.010274 -0.031462
v 0.002792 -0.010274 -0.032144
v 0.000065 -0.010274 -0.032560
v -0.002850 -0.010274 -0.032700
v -0.004082 -0.010274 -0.032680
v -0.005270 -0.010274 -0.032623
v -0.006418 -0.010274 -0.032528
v -0.007531 -0.010274 -0.032393
v -0.008614 -0.010274 -0.032219
v -0.009672 -0.010274 -0.032005
v -0.010709 -0.010274 -0.031749
v -0.011731 -0.010274 -0.031452
v -0.012741 -0.010274 -0.031113
v -0.013746 -0.010274 -0.030730
v -0.014748 -0.010274 -0.030303
v -0.015755 -0.010274 -0.029832
vt 0.924658 0.000000
vt 0.910959 0.000000
vt 0.917808 0.000000
vt 0.931507 0.000000
vt 0.938356 0.000000
vt 0.904110 0.000000
vt 0.945205 0.000000
vt 0.952055 0.000000
vt 0.958904 0.000000
vt 0.897260 0.000000
vt 0.965753 0.000000
vt 0.972603 0.000000
vt 0.979452 0.000000
vt 0.890411 0.000000
vt 0.986301 0.000000
vt 0.993151 0.000000
vt 0.883562 0.000000
vt 1.000000 0.000000
vt 0.000000 0.000000
vt 0.006849 0.000000
vt 0.013699 0.000000
vt 0.020548 0.000000
vt 0.027397 0.000000
vt 0.034247 0.000000
vt 0.041096 0.000000
vt 0.876712 0.000000
vt 0.047945 0.000000
vt 0.054795 0.000000
vt 0.869863 0.000000
vt 0.061644 0.000000
vt 0.068493 0.000000
vt 0.075342 0.000000
vt 0.863014 0.000000
vt 0.082192 0.000000
vt 0.089041 0.000000
vt 0.856164 0.000000
vt 0.095890 0.000000
vt 0.102740 0.000000
vt 0.109589 0.000000
vt 0.849315 0.000000
vt 0.116438 0.000000
vt 0.123288 0.000000
vt 0.130137 0.000000
vt 0.842466 0.000000
vt 0.136986 0.000000
vt 0.143836 0.000000
vt 0.835616 0.000000
vt 0.150685 0.000000
vt 0.157534 0.000000
vt 0.828767 0.000000
vt 0.164384 0.000000
vt 0.171233 0.000000
vt 0.821918 0.000000
vt 0.178082 0.000000
vt 0.815068 0.000000
vt 0.184932 0.000000
vt 0.808219 0.000000
vt 0.191781 0.000000
vt 0.801370 0.000000
vt 0.198630 0.000000
vt 0.794521 0.000000
vt 0.205479 0.000000
vt 0.212329 0.000000
vt 0.787671 0.000000
vt 0.219178 0.000000
vt 0.780822 0.000000
vt 0.226027 0.000000
vt 0.232877 0.000000
vt 0.239726 0.000000
vt 0.773973 0.000000
vt 0.246575 0.000000
vt 0.253425 0.000000
vt 0.767123 0.000000
vt 0.760274 0.000000
vt 0.753425 0.000000
vt 0.746575 0.000000
vt 0.739726 0.000000
vt 0.732877 0.000000
vt 0.726027 0.000000
vt 0.719178 0.000000
vt 0.260274 0.000000
vt 0.712329 0.000000
vt 0.267123 0.000000
vt 0.273973 0.000000
vt 0.280822 0.000000
vt 0.705479 0.000000
vt 0.287671 0.000000
vt 0.294521 0.000000
vt 0.698630 0.000000
vt 0.301370 0.000000
vt 0.691781 0.000000
vt 0.308219 0.000000
vt 0.315068 0.000000
vt 0.684932 0.000000
vt 0.321918 0.000000
vt 0.678082 0.000000
vt 0.328767 0.000000
vt 0.671233 0.000000
vt 0.335616 0.000000
vt 0.664384 0.000000
vt 0.342466 0.000000
vt 0.349315 0.000000
vt 0.657534 0.000000
vt 0.356164 0.000000
vt 0.363014 0.000000
vt 0.650685 0.000000
vt 0.506849 0.000000
vt 0.493151 0.000000
vt 0.500000 0.000000
vt 0.369863 0.000000
vt 0.486301 0.000000
vt 0.376712 0.000000
vt 0.479452 0.000000
vt 0.643836 0.000000
vt 0.383562 0.000000
vt 0.472603 0.000000
vt 0.465753 0.000000
vt 0.390411 0.000000
vt 0.458904 0.000000
vt 0.397260 0.000000
vt 0.452055 0.000000
vt 0.445205 0.000000
vt 0.404110 0.000000
vt 0.636986 0.000000
vt 0.438356 0.000000
vt 0.410959 0.000000
vt 0.431507 0.000000
vt 0.424658 0.000000
vt 0.417808 0.000000
vt 0.630137 0.000000
vt 0.623288 0.000000
vt 0.616438 0.000000
vt 0.513699 0.000000
vt 0.520548 0.000000
vt 0.527397 0.000000
vt 0.609589 0.000000
vt 0.534247 0.000000
vt 0.541096 0.000000
vt 0.602740 0.000000
vt 0.547945 0.000000
vt 0.554795 0.000000
vt 0.561644 0.000000
vt 0.595890 0.000000
vt 0.568493 0.000000
vt 0.575342 0.000000
vt 0.589041 0.000000
vt 0.582192 0.000000
vn 0.0000 1.0000 0.0000
vn 0.0000 1.0000 -0.0001
vn 0.0000 1.0000 -0.0002
vn 0.0000 1.0000 0.0001
usemtl ClueNum
s off
f 136/1/1 134/2/1 135/3/1
f 137/4/1 134/2/1 136/1/1
f 138/5/1 134/2/1 137/4/1
f 138/5/1 133/6/1 134/2/1
f 139/7/1 133/6/1 138/5/1
f 140/8/1 133/6/1 139/7/1
f 141/9/1 133/6/1 140/8/1
f 141/9/1 132/10/1 133/6/1
f 142/11/1 132/10/1 141/9/1
f 143/12/1 132/10/1 142/11/1
f 144/13/1 132/10/1 143/12/1
f 144/13/1 131/14/1 132/10/1
f 145/15/1 131/14/1 144/13/1
f 146/16/1 131/14/1 145/15/1
f 146/16/1 130/17/1 131/14/1
f 147/18/1 130/17/1 146/16/1
f 1/19/1 2/20/1 147/18/1
f 2/20/1 3/21/1 147/18/1
f 3/21/1 4/22/1 147/18/1
f 4/22/1 5/23/1 147/18/1
f 5/23/1 130/17/1 147/18/1
f 5/23/2 6/24/2 130/17/2
f 6/24/1 7/25/1 130/17/1
f 7/25/1 129/26/1 130/17/1
f 7/25/3 8/27/3 129/26/3
f 8/27/1 9/28/1 129/26/1
f 9/28/1 128/29/1 129/26/1
f 9/28/1 10/30/1 128/29/1
f 10/30/1 11/31/1 128/29/1
f 11/31/1 12/32/1 128/29/1
f 12/32/1 127/33/1 128/29/1
f 12/32/4 13/34/4 127/33/4
f 13/34/1 14/35/1 127/33/1
f 14/35/1 126/36/1 127/33/1
f 15/37/1 126/36/1 14/35/1
f 16/38/1 126/36/1 15/37/1
f 17/39/1 126/36/1 16/38/1
f 17/39/1 125/40/1 126/36/1
f 18/41/1 125/40/1 17/39/1
f 19/42/1 125/40/1 18/41/1
f 20/43/1 125/40/1 19/42/1
f 20/43/1 124/44/1 125/40/1
f 21/45/1 124/44/1 20/43/1
f 22/46/1 124/44/1 21/45/1
f 22/46/1 123/47/1 124/44/1
f 23/48/1 123/47/1 22/46/1
f 24/49/1 123/47/1 23/48/1
f 24/49/1 122/50/1 123/47/1
f 25/51/1 122/50/1 24/49/1
f 26/52/1 122/50/1 25/51/1
f 26/52/1 121/53/1 122/50/1
f 27/54/1 121/53/1 26/52/1
f 27/54/1 120/55/1 121/53/1
f 28/56/1 120/55/1 27/54/1
f 28/56/1 119/57/1 120/55/1
f 29/58/1 119/57/1 28/56/1
f 29/58/1 118/59/1 119/57/1
f 30/60/1 118/59/1 29/58/1
f 30/60/1 117/61/1 118/59/1
f 31/62/1 117/61/1 30/60/1
f 32/63/1 117/61/1 31/62/1
f 32/63/1 116/64/1 117/61/1
f 33/65/1 116/64/1 32/63/1
f 33/65/1 115/66/1 116/64/1
f 34/67/1 115/66/1 33/65/1
f 35/68/1 115/66/1 34/67/1
f 36/69/1 115/66/1 35/68/1
f 36/69/1 114/70/1 115/66/1
f 37/71/1 114/70/1 36/69/1
f 38/72/1 114/70/1 37/71/1
f 38/72/1 113/73/1 114/70/1
f 38/72/1 112/74/1 113/73/1
f 38/72/1 111/75/1 112/74/1
f 38/72/1 110/76/1 111/75/1
f 38/72/1 109/77/1 110/76/1
f 38/72/1 108/78/1 109/77/1
f 38/72/1 107/79/1 108/78/1
f 38/72/1 106/80/1 107/79/1
f 38/72/1 39/81/1 106/80/1
f 39/81/1 105/82/1 106/80/1
f 40/83/1 105/82/1 39/81/1
f 41/84/1 105/82/1 40/83/1
f 42/85/1 105/82/1 41/84/1
f 42/85/1 104/86/1 105/82/1
f 43/87/1 104/86/1 42/85/1
f 44/88/1 104/86/1 43/87/1
f 44/88/1 103/89/1 104/86/1
f 45/90/1 103/89/1 44/88/1
f 45/90/1 102/91/1 103/89/1
f 46/92/1 102/91/1 45/90/1
f 47/93/1 102/91/1 46/92/1
f 47/93/1 101/94/1 102/91/1
f 48/95/1 101/94/1 47/93/1
f 48/95/1 100/96/1 101/94/1
f 49/97/1 100/96/1 48/95/1
f 49/97/1 99/98/1 100/96/1
f 50/99/1 99/98/1 49/97/1
f 50/99/1 98/100/1 99/98/1
f 51/101/1 98/100/1 50/99/1
f 52/102/1 98/100/1 51/101/1
f 52/102/1 97/103/1 98/100/1
f 53/104/1 97/103/1 52/102/1
f 54/105/1 97/103/1 53/104/1
f 54/105/1 96/106/1 97/103/1
f 75/107/1 73/108/1 74/109/1
f 55/110/1 96/106/1 54/105/1
f 75/107/1 72/111/1 73/108/1
f 56/112/1 96/106/1 55/110/1
f 75/107/1 71/113/1 72/111/1
f 56/112/1 95/114/1 96/106/1
f 57/115/1 95/114/1 56/112/1
f 75/107/1 70/116/1 71/113/1
f 75/107/1 69/117/1 70/116/1
f 58/118/1 95/114/1 57/115/1
f 75/107/1 68/119/1 69/117/1
f 59/120/1 95/114/1 58/118/1
f 75/107/1 67/121/1 68/119/1
f 75/107/1 66/122/1 67/121/1
f 60/123/1 95/114/1 59/120/1
f 60/123/1 94/124/1 95/114/1
f 75/107/1 65/125/1 66/122/1
f 61/126/1 94/124/1 60/123/1
f 75/107/1 64/127/1 65/125/1
f 75/107/1 63/128/1 64/127/1
f 62/129/1 94/124/1 61/126/1
f 75/107/1 62/129/1 63/128/1
f 75/107/1 94/124/1 62/129/1
f 75/107/1 93/130/1 94/124/1
f 75/107/1 92/131/1 93/130/1
f 75/107/1 91/132/1 92/131/1
f 76/133/1 91/132/1 75/107/1
f 77/134/1 91/132/1 76/133/1
f 78/135/1 91/132/1 77/134/1
f 78/135/1 90/136/1 91/132/1
f 79/137/1 90/136/1 78/135/1
f 80/138/1 90/136/1 79/137/1
f 80/138/1 89/139/1 90/136/1
f 81/140/1 89/139/1 80/138/1
f 82/141/1 89/139/1 81/140/1
f 83/142/1 89/139/1 82/141/1
f 83/142/1 88/143/1 89/139/1
f 84/144/1 88/143/1 83/142/1
f 85/145/1 88/143/1 84/144/1
f 85/145/1 87/146/1 88/143/1
f 86/147/1 87/146/1 85/145/1
o Plate3_Plane.006
v -0.104051 -0.013128 0.054197
v 0.113427 -0.013128 0.054197
v -0.104051 -0.013128 -0.054039
v 0.113427 -0.013128 -0.054039
vt 0.000000 0.000000
vt 1.000000 0.000000
vt 1.000000 1.000000
vt 0.000000 1.000000
vn 0.0000 1.0000 0.0000
usemtl GreenClue
s off
f 148/148/5 149/149/5 151/150/5 150/151/5
