# Blender v2.93.3 OBJ File: 'yellow.blend'
# www.blender.org
mtllib yellowC.mtl
o Clue4_Text.002
v -0.012285 0.001323 0.033017
v -0.008150 0.001344 0.032877
v 0.024421 0.001475 -0.009825
v 0.024272 0.001471 -0.014256
v -0.004187 0.001331 -0.013296
v -0.004931 0.001311 -0.035354
v -0.014581 0.001264 -0.035028
v -0.013837 0.001283 -0.012970
v -0.021026 0.001248 -0.012728
v -0.020733 0.001255 -0.004062
v -0.013545 0.001291 -0.004305
v -0.003053 0.001356 0.014467
v -0.003250 0.001355 0.014474
v -0.003894 0.001338 -0.004630
v 0.011664 0.001415 -0.005155
vt 0.142857 0.000000
vt 0.000000 0.000000
vt 0.071429 0.000000
vt 0.785714 0.000000
vt 0.857143 0.000000
vt 0.714286 0.000000
vt 1.000000 0.000000
vt 0.928571 0.000000
vt 0.642857 0.000000
vt 0.571429 0.000000
vt 0.214286 0.000000
vt 0.285714 0.000000
vt 0.357143 0.000000
vt 0.500000 0.000000
vt 0.428571 0.000000
vn -0.0050 1.0000 -0.0007
vn -0.0208 -0.9998 0.0000
vn 0.0172 -0.9614 0.2747
usemtl ClueNum
s off
f 3/1/1 1/2/1 2/3/1
f 3/1/1 12/4/1 1/2/1
f 12/4/1 13/5/1 1/2/1
f 13/5/1 11/6/1 1/2/1
f 3/1/1 15/7/1 12/4/1
f 14/8/1 11/6/1 13/5/1
f 3/1/1 14/8/1 15/7/1
f 3/1/1 11/6/1 14/8/1
f 3/1/1 10/9/1 11/6/1
f 3/1/1 9/10/1 10/9/1
f 4/11/1 9/10/1 3/1/1
f 5/12/2 9/10/2 4/11/2
f 6/13/1 8/14/1 5/12/1
f 8/14/3 9/10/3 5/12/3
f 6/13/1 7/15/1 8/14/1
o Plate4_Plane.007
v 0.104325 0.001502 -0.057785
v -0.113032 0.000430 -0.050616
v 0.107893 0.001596 0.050392
v -0.109464 0.000524 0.057562
vt 0.000000 0.000000
vt 1.000000 0.000000
vt 1.000000 1.000000
vt 0.000000 1.000000
vn -0.0050 1.0000 -0.0007
usemtl YellowClue.001
s off
f 16/16/4 17/17/4 19/18/4 18/19/4
